<svg width="308" height="86" viewBox="0 0 308 86" fill="none" xmlns="http://www.w3.org/2000/svg">
<rect x="70.5" y="20" width="46" height="46" rx="23" fill="#006BA9"/>
<path d="M105.694 46.5953C104.602 47.7882 103.26 48.526 101.637 48.5885C98.5722 48.7063 96.1997 46.9061 95.9059 44.6538C95.3212 40.1703 98.2404 37.4112 101.437 37.4112C103.064 37.4112 104.275 38.0328 105.35 39.0293L108.155 35.8705C106.633 34.3661 104.292 33 101.437 33C98.6735 33 96.1862 33.914 94.3 35.6215V33.4076H80.4V37.6873H89.1941V44.4952C89.1941 47.5861 88.017 48.5885 85.7262 48.5885C84.2383 48.5885 82.7159 47.7186 81.4276 46.1089L78.5 49.2749C80.4631 52.0211 83.3978 53 85.8954 53C89.7608 53 92.0638 51.5884 93.2551 49.4611C95.1941 51.801 98.0364 53 101.111 53C104.142 53 106.662 51.8625 108.5 49.6852L105.694 46.5953Z" fill="black"/>
<path d="M135.88 26.34H137.462V36H136.188V28.286L132.912 33.97H132.198L128.922 28.286V36H127.634V26.34H129.258L132.562 32.08L135.88 26.34ZM145.32 28.86H146.524V36H145.32V34.712C144.718 35.608 143.738 36.168 142.548 36.168C140.504 36.168 138.978 34.558 138.978 32.43C138.978 30.302 140.504 28.692 142.548 28.692C143.738 28.692 144.718 29.252 145.32 30.148V28.86ZM142.772 35.006C144.228 35.006 145.32 33.9 145.32 32.43C145.32 30.96 144.228 29.854 142.772 29.854C141.302 29.854 140.21 30.96 140.21 32.43C140.21 33.9 141.302 35.006 142.772 35.006ZM154.27 25.92H155.474V36H154.27V34.712C153.668 35.608 152.688 36.168 151.498 36.168C149.454 36.168 147.928 34.558 147.928 32.43C147.928 30.302 149.454 28.692 151.498 28.692C152.688 28.692 153.668 29.252 154.27 30.148V25.92ZM151.722 35.006C153.178 35.006 154.27 33.9 154.27 32.43C154.27 30.96 153.178 29.854 151.722 29.854C150.252 29.854 149.16 30.96 149.16 32.43C149.16 33.9 150.252 35.006 151.722 35.006ZM164.326 32.43C164.326 32.598 164.312 32.794 164.298 32.962H158.152C158.39 34.208 159.412 35.062 160.798 35.062C161.848 35.062 162.744 34.558 163.206 33.9L164.032 34.614C163.318 35.566 162.142 36.168 160.756 36.168C158.516 36.168 156.85 34.544 156.85 32.402C156.85 30.288 158.46 28.692 160.602 28.692C162.73 28.692 164.326 30.288 164.326 32.43ZM160.588 29.798C159.342 29.798 158.362 30.652 158.138 31.87H163.052C162.828 30.638 161.848 29.798 160.588 29.798ZM172.886 28.692C174.93 28.692 176.47 30.302 176.47 32.43C176.47 34.558 174.93 36.168 172.886 36.168C171.696 36.168 170.716 35.608 170.114 34.712V36H168.91V25.92H170.114V30.148C170.716 29.252 171.696 28.692 172.886 28.692ZM172.662 35.006C174.132 35.006 175.224 33.9 175.224 32.43C175.224 30.96 174.132 29.854 172.662 29.854C171.206 29.854 170.114 30.96 170.114 32.43C170.114 33.9 171.206 35.006 172.662 35.006ZM182.826 28.86H184.17L180.32 37.512C179.956 38.352 179.256 38.828 178.486 38.828C177.926 38.828 177.268 38.562 176.848 38.142L177.352 37.218C177.59 37.484 177.94 37.666 178.304 37.666C178.668 37.666 178.99 37.484 179.214 37.022L179.732 35.958L176.624 28.86H178.01L180.418 34.558L182.826 28.86Z" fill="#98A2B3"/>
<path d="M129.26 56.24C128.38 56.24 127.62 56.06 127.02 55.8V53.16C127.56 53.4 128.26 53.58 128.96 53.58C130.38 53.58 131.24 52.82 131.24 51.48V42.2H134V51.62C134 54.52 132.1 56.24 129.26 56.24ZM143.793 45.8H146.393V56H143.793V54.78C142.973 55.68 141.833 56.24 140.473 56.24C137.633 56.24 135.493 53.94 135.493 50.9C135.493 47.86 137.633 45.56 140.473 45.56C141.833 45.56 142.973 46.12 143.793 47.02V45.8ZM140.973 53.72C142.593 53.72 143.793 52.5 143.793 50.9C143.793 49.3 142.593 48.08 140.973 48.08C139.373 48.08 138.173 49.3 138.173 50.9C138.173 52.5 139.373 53.72 140.973 53.72ZM155.686 45.8H158.586L153.546 57.78C152.986 59.18 151.786 60.04 150.446 60.04C149.526 60.04 148.446 59.64 147.766 59.02L148.766 56.98C149.086 57.32 149.566 57.52 150.006 57.52C150.486 57.52 150.906 57.3 151.166 56.72L151.586 55.84L147.426 45.8H150.386L153.046 52.74L155.686 45.8ZM169.207 50.92C169.207 51.2 169.187 51.56 169.147 51.84H161.247C161.607 53.12 162.687 53.94 164.167 53.94C165.407 53.94 166.427 53.36 166.967 52.68L168.707 54.2C167.647 55.46 166.007 56.24 164.087 56.24C160.847 56.24 158.427 53.92 158.427 50.86C158.427 47.84 160.767 45.56 163.847 45.56C166.907 45.56 169.207 47.84 169.207 50.92ZM163.827 47.84C162.547 47.84 161.547 48.68 161.227 49.94H166.427C166.107 48.66 165.087 47.84 163.827 47.84ZM174.24 56.24C172.34 56.24 170.92 55.52 169.94 54.68L171.2 52.96C171.98 53.64 172.96 54.1 174.18 54.1C175.22 54.1 175.98 53.76 175.98 53.14C175.98 52.46 175.1 52.22 173.98 51.96C172.36 51.6 170.26 51.1 170.26 48.78C170.26 46.62 172.16 45.56 174.42 45.56C176.16 45.56 177.46 46.18 178.38 46.9L177.12 48.64C176.38 48.08 175.52 47.7 174.48 47.7C173.6 47.7 172.88 47.98 172.88 48.58C172.88 49.26 173.74 49.48 174.88 49.72C176.5 50.08 178.6 50.58 178.6 52.9C178.6 55.06 176.68 56.24 174.24 56.24ZM185.889 45.56C188.289 45.56 189.869 47.12 189.869 49.52V56H187.269V50.36C187.269 48.98 186.389 48.08 185.049 48.08C183.609 48.08 182.649 49 182.649 50.4V56H180.049V41.6H182.649V47C183.449 46.06 184.569 45.56 185.889 45.56ZM202.328 42.2C205.008 42.2 207.068 44.18 207.068 46.8C207.068 49.42 205.008 51.4 202.328 51.4H199.068V56H196.308V42.2H202.328ZM202.268 48.8C203.388 48.8 204.228 47.94 204.228 46.8C204.228 45.66 203.388 44.8 202.268 44.8H199.068V48.8H202.268ZM215.755 45.8H218.355V56H215.755V54.78C214.935 55.68 213.795 56.24 212.435 56.24C209.595 56.24 207.455 53.94 207.455 50.9C207.455 47.86 209.595 45.56 212.435 45.56C213.795 45.56 214.935 46.12 215.755 47.02V45.8ZM212.935 53.72C214.555 53.72 215.755 52.5 215.755 50.9C215.755 49.3 214.555 48.08 212.935 48.08C211.335 48.08 210.135 49.3 210.135 50.9C210.135 52.5 211.335 53.72 212.935 53.72ZM226.808 48.18H224.068V52.42C224.068 53.28 224.548 53.72 225.468 53.72C225.988 53.72 226.428 53.56 226.808 53.38V55.8C226.248 56.1 225.668 56.24 224.908 56.24C222.568 56.24 221.468 54.88 221.468 52.84V48.18H219.848V45.8H221.468V43.22H224.068V45.8H226.808V48.18ZM229.731 44.3C228.811 44.3 228.091 43.6 228.091 42.68C228.091 41.76 228.811 41.06 229.731 41.06C230.651 41.06 231.371 41.76 231.371 42.68C231.371 43.6 230.651 44.3 229.731 44.3ZM228.431 56V45.8H231.031V56H228.431ZM233.21 56V41.6H235.81V56H233.21Z" fill="black"/>
</svg>
